<?xml version="1.0" encoding="UTF-8"?>
<svg width="154px" height="79px" viewBox="0 0 154 79" version="1.1" xmlns="http://www.w3.org/2000/svg" xmlns:xlink="http://www.w3.org/1999/xlink">
    <title>logo</title>
    <g id="Page-1" stroke="none" stroke-width="1" fill="none" fill-rule="evenodd">
        <g id="logo" fill="#FFFFFF" fill-rule="nonzero">
            <g id="CTH" transform="translate(0.000000, 7.000000)">
                <path d="M24.4863281,66.1230469 C27.7089844,66.1230469 30.5654297,65.6347656 33.0556641,64.6582031 C35.5458984,63.6816406 37.726888,62.2981771 39.5986328,60.5078125 C41.4703776,58.7174479 43.0572917,56.5527344 44.359375,54.0136719 C45.6614583,51.4746094 46.703125,48.6425781 47.484375,45.5175781 L47.484375,45.5175781 L39.3789062,42.3925781 C38.0442708,46.8522135 36.2620443,50.4003906 34.0322266,53.0371094 C31.8024089,55.6738281 28.6204427,56.9921875 24.4863281,56.9921875 C21.6217448,56.9921875 19.2617188,56.2923177 17.40625,54.8925781 C15.5507812,53.4928385 14.0859375,51.6617839 13.0117187,49.3994141 C11.9375,47.1370443 11.1806641,44.5735677 10.7412109,41.7089844 C10.3017578,38.844401 10.0820312,35.9798177 10.0820312,33.1152344 C10.0820312,30.250651 10.3017578,27.4023438 10.7412109,24.5703125 C11.1806641,21.7382812 11.953776,19.1829427 13.0605469,16.9042969 C14.1673177,14.625651 15.6321615,12.7864583 17.4550781,11.3867188 C19.2779948,9.98697917 21.6217448,9.28710938 24.4863281,9.28710938 C26.6998698,9.28710938 28.6204427,9.75911458 30.2480469,10.703125 C31.875651,11.6471354 33.2265625,12.8678385 34.3007812,14.3652344 C35.375,15.8626302 36.15625,17.5797526 36.6445312,19.5166016 C37.1328125,21.4534505 37.3769531,23.4147135 37.3769531,25.4003906 L37.3769531,25.4003906 L46.5078125,25.4003906 L46.5078125,1.27929688 L37.3769531,1.27929688 L37.3769531,8.79882812 C36.9863281,7.39908854 36.3271484,6.16210938 35.3994141,5.08789062 C34.4716797,4.01367188 33.3893229,3.11035156 32.1523438,2.37792969 C30.9153646,1.64550781 29.5807292,1.10026042 28.1484375,0.7421875 C26.7161458,0.384114583 25.3001302,0.205078125 23.9003906,0.205078125 C19.5709635,0.205078125 15.9088542,1.12467448 12.9140625,2.96386719 C9.91927083,4.8030599 7.45345052,7.23632813 5.51660156,10.2636719 C3.5797526,13.2910156 2.18001302,16.7903646 1.31738281,20.7617187 C0.454752604,24.7330729 0.0234375,28.8509115 0.0234375,33.1152344 C0.0234375,37.3795573 0.454752604,41.4892578 1.31738281,45.4443359 C2.18001302,49.3994141 3.59602865,52.9150391 5.56542969,55.9912109 C7.53483073,59.0673828 10.0657552,61.5250651 13.1582031,63.3642578 C16.250651,65.2034505 20.0266927,66.1230469 24.4863281,66.1230469 Z M93.4804688,65 L93.4804688,55.9179688 L83.3730469,55.9179688 L83.3730469,10.4101562 L91.9667969,10.4101562 L91.9667969,24.5214844 L101,24.5214844 L101,1.27929688 L55.5898438,1.27929688 L55.5898438,24.5214844 L64.5742188,24.5214844 L64.5742188,10.4101562 L73.265625,10.4101562 L73.265625,55.9179688 L63.2070312,55.9179688 L63.2070312,65 L93.4804688,65 Z M122.679688,65 L122.679688,37.1191406 L143.1875,37.1191406 L143.1875,65 L153.294922,65 L153.294922,1.27929688 L143.1875,1.27929688 L143.1875,27.9882812 L122.679688,27.9882812 L122.679688,1.27929688 L112.572266,1.27929688 L112.572266,65 L122.679688,65 Z"></path>
            </g>
            <rect id="Rectangle" x="19" y="0" width="10" height="79"></rect>
        </g>
    </g>
</svg>